{
    "asset" : {
        "generator" : "Khronos glTF Blender I/O v1.8.19",
        "version" : "2.0"
    },
    "scene" : 0,
    "scenes" : [
        {
            "name" : "Scene",
            "nodes" : [
                0
            ]
        }
    ],
    "nodes" : [
        {
            "mesh" : 0,
            "name" : "\u4f4f\u5b85\u697c04"
        }
    ],
    "materials" : [
        {
            "doubleSided" : true,
            "name" : "Standard_323\u4f4f\u5b85-26",
            "pbrMetallicRoughness" : {
                "baseColorFactor" : [
                    0.8470590114593506,
                    0.764706015586853,
                    0.6901959776878357,
                    1
                ],
                "metallicFactor" : 0,
                "roughnessFactor" : 0.5
            }
        },
        {
            "doubleSided" : true,
            "name" : "Standard_32\u4f4f\u5b85-26",
            "pbrMetallicRoughness" : {
                "baseColorFactor" : [
                    0.6901959776878357,
                    0.5686269998550415,
                    0.4588240087032318,
                    1
                ],
                "metallicFactor" : 0,
                "roughnessFactor" : 0.5
            }
        },
        {
            "doubleSided" : true,
            "name" : "\u5efa\u7b51\u73bb\u74831\u4f4f\u5b85-26",
            "pbrMetallicRoughness" : {
                "baseColorFactor" : [
                    0.27068009972572327,
                    0.3134920597076416,
                    0.3423803448677063,
                    1
                ],
                "metallicFactor" : 0,
                "roughnessFactor" : 0.5
            }
        },
        {
            "doubleSided" : true,
            "name" : "Standard_3234\u4f4f\u5b85-26",
            "pbrMetallicRoughness" : {
                "baseColorFactor" : [
                    0.7333329916000366,
                    0.6823530197143555,
                    0.6431369781494141,
                    1
                ],
                "metallicFactor" : 0,
                "roughnessFactor" : 0.5
            }
        },
        {
            "doubleSided" : true,
            "name" : "Standard_3223\u4f4f\u5b85-26",
            "pbrMetallicRoughness" : {
                "baseColorFactor" : [
                    0.6901959776878357,
                    0.5294119715690613,
                    0.4588240087032318,
                    1
                ],
                "metallicFactor" : 0,
                "roughnessFactor" : 0.5
            }
        },
        {
            "doubleSided" : true,
            "name" : "Standard_322\u4f4f\u5b85-26",
            "pbrMetallicRoughness" : {
                "baseColorFactor" : [
                    0.521569013595581,
                    0.4470590054988861,
                    0.4117650091648102,
                    1
                ],
                "metallicFactor" : 0,
                "roughnessFactor" : 0.5
            }
        },
        {
            "doubleSided" : true,
            "name" : "Standard_3\u4f4f\u5b85-26",
            "pbrMetallicRoughness" : {
                "baseColorFactor" : [
                    0.7450979948043823,
                    0.7450979948043823,
                    0.7450979948043823,
                    1
                ],
                "metallicFactor" : 0,
                "roughnessFactor" : 0.5
            }
        },
        {
            "doubleSided" : true,
            "name" : "\u697c\u98762\u4f4f\u5b85-26",
            "pbrMetallicRoughness" : {
                "baseColorFactor" : [
                    0.5450980067253113,
                    0.5450980067253113,
                    0.5450980067253113,
                    1
                ],
                "metallicFactor" : 0,
                "roughnessFactor" : 0.5
            }
        }
    ],
    "meshes" : [
        {
            "name" : "Obj3d66-555102-24-165",
            "primitives" : [
                {
                    "attributes" : {
                        "POSITION" : 0,
                        "NORMAL" : 1,
                        "TEXCOORD_0" : 2
                    },
                    "indices" : 3,
                    "material" : 0
                },
                {
                    "attributes" : {
                        "POSITION" : 4,
                        "NORMAL" : 5,
                        "TEXCOORD_0" : 6
                    },
                    "indices" : 7,
                    "material" : 1
                },
                {
                    "attributes" : {
                        "POSITION" : 8,
                        "NORMAL" : 9,
                        "TEXCOORD_0" : 10
                    },
                    "indices" : 11,
                    "material" : 2
                },
                {
                    "attributes" : {
                        "POSITION" : 12,
                        "NORMAL" : 13,
                        "TEXCOORD_0" : 14
                    },
                    "indices" : 15,
                    "material" : 3
                },
                {
                    "attributes" : {
                        "POSITION" : 16,
                        "NORMAL" : 17,
                        "TEXCOORD_0" : 18
                    },
                    "indices" : 19,
                    "material" : 4
                },
                {
                    "attributes" : {
                        "POSITION" : 20,
                        "NORMAL" : 21,
                        "TEXCOORD_0" : 22
                    },
                    "indices" : 23,
                    "material" : 5
                },
                {
                    "attributes" : {
                        "POSITION" : 24,
                        "NORMAL" : 25,
                        "TEXCOORD_0" : 26
                    },
                    "indices" : 27,
                    "material" : 6
                },
                {
                    "attributes" : {
                        "POSITION" : 28,
                        "NORMAL" : 29,
                        "TEXCOORD_0" : 30
                    },
                    "indices" : 31,
                    "material" : 7
                }
            ]
        }
    ],
    "accessors" : [
        {
            "bufferView" : 0,
            "componentType" : 5126,
            "count" : 5038,
            "max" : [
                9.00959587097168,
                19.369895935058594,
                5.277838706970215
            ],
            "min" : [
                -9.021712303161621,
                2.886089324951172,
                -5.277220726013184
            ],
            "type" : "VEC3"
        },
        {
            "bufferView" : 1,
            "componentType" : 5126,
            "count" : 5038,
            "type" : "VEC3"
        },
        {
            "bufferView" : 2,
            "componentType" : 5126,
            "count" : 5038,
            "type" : "VEC2"
        },
        {
            "bufferView" : 3,
            "componentType" : 5123,
            "count" : 6864,
            "type" : "SCALAR"
        },
        {
            "bufferView" : 4,
            "componentType" : 5126,
            "count" : 872,
            "max" : [
                9.00959587097168,
                2.6860904693603516,
                5.277837753295898
            ],
            "min" : [
                -9.021712303161621,
                -2.86102294921875e-06,
                -5.277220726013184
            ],
            "type" : "VEC3"
        },
        {
            "bufferView" : 5,
            "componentType" : 5126,
            "count" : 872,
            "type" : "VEC3"
        },
        {
            "bufferView" : 6,
            "componentType" : 5126,
            "count" : 872,
            "type" : "VEC2"
        },
        {
            "bufferView" : 7,
            "componentType" : 5123,
            "count" : 1200,
            "type" : "SCALAR"
        },
        {
            "bufferView" : 8,
            "componentType" : 5126,
            "count" : 520,
            "max" : [
                8.202277183532715,
                17.43533706665039,
                5.177837371826172
            ],
            "min" : [
                -8.21439266204834,
                0.7472352981567383,
                -5.177220344543457
            ],
            "type" : "VEC3"
        },
        {
            "bufferView" : 9,
            "componentType" : 5126,
            "count" : 520,
            "type" : "VEC3"
        },
        {
            "bufferView" : 10,
            "componentType" : 5126,
            "count" : 520,
            "type" : "VEC2"
        },
        {
            "bufferView" : 11,
            "componentType" : 5123,
            "count" : 672,
            "type" : "SCALAR"
        },
        {
            "bufferView" : 12,
            "componentType" : 5126,
            "count" : 780,
            "max" : [
                3.698134422302246,
                18.28771209716797,
                5.277838706970215
            ],
            "min" : [
                -3.7102503776550293,
                -2.86102294921875e-06,
                -5.277220726013184
            ],
            "type" : "VEC3"
        },
        {
            "bufferView" : 13,
            "componentType" : 5126,
            "count" : 780,
            "type" : "VEC3"
        },
        {
            "bufferView" : 14,
            "componentType" : 5126,
            "count" : 780,
            "type" : "VEC2"
        },
        {
            "bufferView" : 15,
            "componentType" : 5123,
            "count" : 1080,
            "type" : "SCALAR"
        },
        {
            "bufferView" : 16,
            "componentType" : 5126,
            "count" : 790,
            "max" : [
                9.009594917297363,
                16.258909225463867,
                5.277838706970215
            ],
            "min" : [
                -9.021711349487305,
                2.6860876083374023,
                -5.277220726013184
            ],
            "type" : "VEC3"
        },
        {
            "bufferView" : 17,
            "componentType" : 5126,
            "count" : 790,
            "type" : "VEC3"
        },
        {
            "bufferView" : 18,
            "componentType" : 5126,
            "count" : 790,
            "type" : "VEC2"
        },
        {
            "bufferView" : 19,
            "componentType" : 5123,
            "count" : 1008,
            "type" : "SCALAR"
        },
        {
            "bufferView" : 20,
            "componentType" : 5126,
            "count" : 662,
            "max" : [
                3.698134422302246,
                17.435338973999023,
                5.277838706970215
            ],
            "min" : [
                -3.7102503776550293,
                0.7472352981567383,
                -5.277220726013184
            ],
            "type" : "VEC3"
        },
        {
            "bufferView" : 21,
            "componentType" : 5126,
            "count" : 662,
            "type" : "VEC3"
        },
        {
            "bufferView" : 22,
            "componentType" : 5126,
            "count" : 662,
            "type" : "VEC2"
        },
        {
            "bufferView" : 23,
            "componentType" : 5123,
            "count" : 960,
            "type" : "SCALAR"
        },
        {
            "bufferView" : 24,
            "componentType" : 5126,
            "count" : 3481,
            "max" : [
                9.009594917297363,
                19.61417007446289,
                5.277838706970215
            ],
            "min" : [
                -9.021711349487305,
                0.6572856903076172,
                -5.277220726013184
            ],
            "type" : "VEC3"
        },
        {
            "bufferView" : 25,
            "componentType" : 5126,
            "count" : 3481,
            "type" : "VEC3"
        },
        {
            "bufferView" : 26,
            "componentType" : 5126,
            "count" : 3481,
            "type" : "VEC2"
        },
        {
            "bufferView" : 27,
            "componentType" : 5123,
            "count" : 5040,
            "type" : "SCALAR"
        },
        {
            "bufferView" : 28,
            "componentType" : 5126,
            "count" : 138,
            "max" : [
                8.85959529876709,
                19.369895935058594,
                5.1278395652771
            ],
            "min" : [
                -8.871711730957031,
                18.187711715698242,
                -5.127222061157227
            ],
            "type" : "VEC3"
        },
        {
            "bufferView" : 29,
            "componentType" : 5126,
            "count" : 138,
            "type" : "VEC3"
        },
        {
            "bufferView" : 30,
            "componentType" : 5126,
            "count" : 138,
            "type" : "VEC2"
        },
        {
            "bufferView" : 31,
            "componentType" : 5123,
            "count" : 168,
            "type" : "SCALAR"
        }
    ],
    "bufferViews" : [
        {
            "buffer" : 0,
            "byteLength" : 60456,
            "byteOffset" : 0
        },
        {
            "buffer" : 0,
            "byteLength" : 60456,
            "byteOffset" : 60456
        },
        {
            "buffer" : 0,
            "byteLength" : 40304,
            "byteOffset" : 120912
        },
        {
            "buffer" : 0,
            "byteLength" : 13728,
            "byteOffset" : 161216
        },
        {
            "buffer" : 0,
            "byteLength" : 10464,
            "byteOffset" : 174944
        },
        {
            "buffer" : 0,
            "byteLength" : 10464,
            "byteOffset" : 185408
        },
        {
            "buffer" : 0,
            "byteLength" : 6976,
            "byteOffset" : 195872
        },
        {
            "buffer" : 0,
            "byteLength" : 2400,
            "byteOffset" : 202848
        },
        {
            "buffer" : 0,
            "byteLength" : 6240,
            "byteOffset" : 205248
        },
        {
            "buffer" : 0,
            "byteLength" : 6240,
            "byteOffset" : 211488
        },
        {
            "buffer" : 0,
            "byteLength" : 4160,
            "byteOffset" : 217728
        },
        {
            "buffer" : 0,
            "byteLength" : 1344,
            "byteOffset" : 221888
        },
        {
            "buffer" : 0,
            "byteLength" : 9360,
            "byteOffset" : 223232
        },
        {
            "buffer" : 0,
            "byteLength" : 9360,
            "byteOffset" : 232592
        },
        {
            "buffer" : 0,
            "byteLength" : 6240,
            "byteOffset" : 241952
        },
        {
            "buffer" : 0,
            "byteLength" : 2160,
            "byteOffset" : 248192
        },
        {
            "buffer" : 0,
            "byteLength" : 9480,
            "byteOffset" : 250352
        },
        {
            "buffer" : 0,
            "byteLength" : 9480,
            "byteOffset" : 259832
        },
        {
            "buffer" : 0,
            "byteLength" : 6320,
            "byteOffset" : 269312
        },
        {
            "buffer" : 0,
            "byteLength" : 2016,
            "byteOffset" : 275632
        },
        {
            "buffer" : 0,
            "byteLength" : 7944,
            "byteOffset" : 277648
        },
        {
            "buffer" : 0,
            "byteLength" : 7944,
            "byteOffset" : 285592
        },
        {
            "buffer" : 0,
            "byteLength" : 5296,
            "byteOffset" : 293536
        },
        {
            "buffer" : 0,
            "byteLength" : 1920,
            "byteOffset" : 298832
        },
        {
            "buffer" : 0,
            "byteLength" : 41772,
            "byteOffset" : 300752
        },
        {
            "buffer" : 0,
            "byteLength" : 41772,
            "byteOffset" : 342524
        },
        {
            "buffer" : 0,
            "byteLength" : 27848,
            "byteOffset" : 384296
        },
        {
            "buffer" : 0,
            "byteLength" : 10080,
            "byteOffset" : 412144
        },
        {
            "buffer" : 0,
            "byteLength" : 1656,
            "byteOffset" : 422224
        },
        {
            "buffer" : 0,
            "byteLength" : 1656,
            "byteOffset" : 423880
        },
        {
            "buffer" : 0,
            "byteLength" : 1104,
            "byteOffset" : 425536
        },
        {
            "buffer" : 0,
            "byteLength" : 336,
            "byteOffset" : 426640
        }
    ],
    "buffers" : [
        {
            "byteLength" : 426976,
            "uri" : "data:application/octet-stream;base64,"
        }
    ]
}
