{
    "asset" : {
        "generator" : "Khronos glTF Blender I/O v1.8.19",
        "version" : "2.0"
    },
    "scene" : 0,
    "scenes" : [
        {
            "name" : "Scene",
            "nodes" : [
                0
            ]
        }
    ],
    "nodes" : [
        {
            "mesh" : 0,
            "name" : "\u56f4\u589918"
        }
    ],
    "materials" : [
        {
            "doubleSided" : true,
            "name" : "Mat3d66-15184606-7-60808",
            "pbrMetallicRoughness" : {
                "baseColorTexture" : {
                    "index" : 0
                },
                "metallicFactor" : 0,
                "roughnessFactor" : 0.5
            }
        },
        {
            "doubleSided" : true,
            "name" : "Mat3d66-15184606-4-85932",
            "pbrMetallicRoughness" : {
                "baseColorFactor" : [
                    0.031373001635074615,
                    0.035294000059366226,
                    0.03921600058674812,
                    1
                ],
                "metallicFactor" : 0,
                "roughnessFactor" : 0.5
            }
        },
        {
            "doubleSided" : true,
            "name" : "Mat3d66-15184606-5-29774",
            "pbrMetallicRoughness" : {
                "baseColorTexture" : {
                    "index" : 1
                },
                "metallicFactor" : 0,
                "roughnessFactor" : 0.5
            }
        }
    ],
    "meshes" : [
        {
            "name" : "Obj3d66-15184606-47-708",
            "primitives" : [
                {
                    "attributes" : {
                        "POSITION" : 0,
                        "NORMAL" : 1,
                        "TEXCOORD_0" : 2
                    },
                    "indices" : 3,
                    "material" : 0
                },
                {
                    "attributes" : {
                        "POSITION" : 4,
                        "NORMAL" : 5,
                        "TEXCOORD_0" : 6
                    },
                    "indices" : 7,
                    "material" : 1
                },
                {
                    "attributes" : {
                        "POSITION" : 8,
                        "NORMAL" : 9,
                        "TEXCOORD_0" : 10
                    },
                    "indices" : 11,
                    "material" : 2
                }
            ]
        }
    ],
    "textures" : [
        {
            "sampler" : 0,
            "source" : 0
        },
        {
            "sampler" : 0,
            "source" : 1
        }
    ],
    "images" : [
        {
            "bufferView" : 4,
            "mimeType" : "image/jpeg",
            "name" : "3d66Model-15184606-files-2"
        },
        {
            "bufferView" : 13,
            "mimeType" : "image/jpeg",
            "name" : "3d66Model-15184606-files-1"
        }
    ],
    "accessors" : [
        {
            "bufferView" : 0,
            "componentType" : 5126,
            "count" : 4468,
            "max" : [
                3.8617329597473145,
                1.765026569366455,
                0.2636473774909973
            ],
            "min" : [
                -3.8617324829101562,
                5.960464477539063e-08,
                -0.2636474370956421
            ],
            "type" : "VEC3"
        },
        {
            "bufferView" : 1,
            "componentType" : 5126,
            "count" : 4468,
            "type" : "VEC3"
        },
        {
            "bufferView" : 2,
            "componentType" : 5126,
            "count" : 4468,
            "type" : "VEC2"
        },
        {
            "bufferView" : 3,
            "componentType" : 5123,
            "count" : 7512,
            "type" : "SCALAR"
        },
        {
            "bufferView" : 5,
            "componentType" : 5126,
            "count" : 7958,
            "max" : [
                3.8329453468322754,
                1.6942009925842285,
                0.2341070920228958
            ],
            "min" : [
                -3.7879981994628906,
                8.046627044677734e-06,
                -0.21956504881381989
            ],
            "type" : "VEC3"
        },
        {
            "bufferView" : 6,
            "componentType" : 5126,
            "count" : 7958,
            "type" : "VEC3"
        },
        {
            "bufferView" : 7,
            "componentType" : 5126,
            "count" : 7958,
            "type" : "VEC2"
        },
        {
            "bufferView" : 8,
            "componentType" : 5123,
            "count" : 19128,
            "type" : "SCALAR"
        },
        {
            "bufferView" : 9,
            "componentType" : 5126,
            "count" : 107,
            "max" : [
                3.7881040573120117,
                1.6011292934417725,
                0.18989095091819763
            ],
            "min" : [
                -3.7881088256835938,
                0.029425978660583496,
                -0.17787301540374756
            ],
            "type" : "VEC3"
        },
        {
            "bufferView" : 10,
            "componentType" : 5126,
            "count" : 107,
            "type" : "VEC3"
        },
        {
            "bufferView" : 11,
            "componentType" : 5126,
            "count" : 107,
            "type" : "VEC2"
        },
        {
            "bufferView" : 12,
            "componentType" : 5123,
            "count" : 165,
            "type" : "SCALAR"
        }
    ],
    "bufferViews" : [
        {
            "buffer" : 0,
            "byteLength" : 53616,
            "byteOffset" : 0
        },
        {
            "buffer" : 0,
            "byteLength" : 53616,
            "byteOffset" : 53616
        },
        {
            "buffer" : 0,
            "byteLength" : 35744,
            "byteOffset" : 107232
        },
        {
            "buffer" : 0,
            "byteLength" : 15024,
            "byteOffset" : 142976
        },
        {
            "buffer" : 0,
            "byteLength" : 2248461,
            "byteOffset" : 158000
        },
        {
            "buffer" : 0,
            "byteLength" : 95496,
            "byteOffset" : 2406464
        },
        {
            "buffer" : 0,
            "byteLength" : 95496,
            "byteOffset" : 2501960
        },
        {
            "buffer" : 0,
            "byteLength" : 63664,
            "byteOffset" : 2597456
        },
        {
            "buffer" : 0,
            "byteLength" : 38256,
            "byteOffset" : 2661120
        },
        {
            "buffer" : 0,
            "byteLength" : 1284,
            "byteOffset" : 2699376
        },
        {
            "buffer" : 0,
            "byteLength" : 1284,
            "byteOffset" : 2700660
        },
        {
            "buffer" : 0,
            "byteLength" : 856,
            "byteOffset" : 2701944
        },
        {
            "buffer" : 0,
            "byteLength" : 330,
            "byteOffset" : 2702800
        },
        {
            "buffer" : 0,
            "byteLength" : 132859,
            "byteOffset" : 2703132
        }
    ],
    "samplers" : [
        {
            "magFilter" : 9729,
            "minFilter" : 9987
        }
    ],
    "buffers" : [
        {
            "byteLength" : 2835992,
            "uri" : "data:application/octet-stream;base64,"
        }
    ]
}
