{
    "asset" : {
        "generator" : "Khronos glTF Blender I/O v1.8.19",
        "version" : "2.0"
    },
    "scene" : 0,
    "scenes" : [
        {
            "name" : "Scene",
            "nodes" : [
                0
            ]
        }
    ],
    "nodes" : [
        {
            "mesh" : 0,
            "name" : "\u62f1\u686503"
        }
    ],
    "materials" : [
        {
            "doubleSided" : true,
            "name" : "Mat3d66-4712798-1-2483.004",
            "pbrMetallicRoughness" : {
                "baseColorTexture" : {
                    "index" : 0
                },
                "metallicFactor" : 0,
                "roughnessFactor" : 0.9251968860626221
            }
        },
        {
            "doubleSided" : true,
            "name" : "Mat3d66-4712798-8-2943.002",
            "pbrMetallicRoughness" : {
                "baseColorTexture" : {
                    "index" : 1
                },
                "metallicFactor" : 0,
                "roughnessFactor" : 0.8070866465568542
            }
        },
        {
            "doubleSided" : true,
            "name" : "Mat3d66-4712798-6-4859.002",
            "pbrMetallicRoughness" : {
                "baseColorFactor" : [
                    0.5,
                    0.5,
                    0.5,
                    1
                ],
                "metallicFactor" : 0,
                "roughnessFactor" : 0.7677165269851685
            }
        },
        {
            "doubleSided" : true,
            "name" : "Mat3d66-4712798-10-642.001",
            "pbrMetallicRoughness" : {
                "baseColorFactor" : [
                    0.5,
                    0.5,
                    0.5,
                    1
                ],
                "metallicFactor" : 0,
                "roughnessFactor" : 0.8070866465568542
            }
        }
    ],
    "meshes" : [
        {
            "name" : "Obj3d66-4712798-26-264",
            "primitives" : [
                {
                    "attributes" : {
                        "POSITION" : 0,
                        "NORMAL" : 1,
                        "TEXCOORD_0" : 2
                    },
                    "indices" : 3,
                    "material" : 0
                },
                {
                    "attributes" : {
                        "POSITION" : 4,
                        "NORMAL" : 5,
                        "TEXCOORD_0" : 6
                    },
                    "indices" : 7,
                    "material" : 1
                },
                {
                    "attributes" : {
                        "POSITION" : 8,
                        "NORMAL" : 9,
                        "TEXCOORD_0" : 10
                    },
                    "indices" : 11,
                    "material" : 2
                },
                {
                    "attributes" : {
                        "POSITION" : 12,
                        "NORMAL" : 13,
                        "TEXCOORD_0" : 14
                    },
                    "indices" : 15,
                    "material" : 3
                }
            ]
        }
    ],
    "textures" : [
        {
            "sampler" : 0,
            "source" : 0
        },
        {
            "sampler" : 0,
            "source" : 1
        }
    ],
    "images" : [
        {
            "bufferView" : 4,
            "mimeType" : "image/jpeg",
            "name" : "Image_0"
        },
        {
            "bufferView" : 9,
            "mimeType" : "image/jpeg",
            "name" : "Image_1"
        }
    ],
    "accessors" : [
        {
            "bufferView" : 0,
            "componentType" : 5126,
            "count" : 1032,
            "max" : [
                1.2180824279785156,
                2.4742751121520996,
                5.7352447509765625
            ],
            "min" : [
                -1.2219257354736328,
                0.41497212648391724,
                -5.750194549560547
            ],
            "type" : "VEC3"
        },
        {
            "bufferView" : 1,
            "componentType" : 5126,
            "count" : 1032,
            "type" : "VEC3"
        },
        {
            "bufferView" : 2,
            "componentType" : 5126,
            "count" : 1032,
            "type" : "VEC2"
        },
        {
            "bufferView" : 3,
            "componentType" : 5123,
            "count" : 1260,
            "type" : "SCALAR"
        },
        {
            "bufferView" : 5,
            "componentType" : 5126,
            "count" : 632,
            "max" : [
                1.2746009826660156,
                2.3995859622955322,
                5.12762451171875
            ],
            "min" : [
                -1.2754020690917969,
                -5.5732019887955175e-08,
                -5.126689910888672
            ],
            "type" : "VEC3"
        },
        {
            "bufferView" : 6,
            "componentType" : 5126,
            "count" : 632,
            "type" : "VEC3"
        },
        {
            "bufferView" : 7,
            "componentType" : 5126,
            "count" : 632,
            "type" : "VEC2"
        },
        {
            "bufferView" : 8,
            "componentType" : 5123,
            "count" : 936,
            "type" : "SCALAR"
        },
        {
            "bufferView" : 10,
            "componentType" : 5126,
            "count" : 21529,
            "max" : [
                1.5452423095703125,
                3.5931811332702637,
                6.644737243652344
            ],
            "min" : [
                -1.5452499389648438,
                0.5068480968475342,
                -6.644737243652344
            ],
            "type" : "VEC3"
        },
        {
            "bufferView" : 11,
            "componentType" : 5126,
            "count" : 21529,
            "type" : "VEC3"
        },
        {
            "bufferView" : 12,
            "componentType" : 5126,
            "count" : 21529,
            "type" : "VEC2"
        },
        {
            "bufferView" : 13,
            "componentType" : 5123,
            "count" : 49824,
            "type" : "SCALAR"
        },
        {
            "bufferView" : 14,
            "componentType" : 5126,
            "count" : 1792,
            "max" : [
                1.5662879943847656,
                1.787024974822998,
                6.6884918212890625
            ],
            "min" : [
                -1.5662860870361328,
                0.46484655141830444,
                -6.688488006591797
            ],
            "type" : "VEC3"
        },
        {
            "bufferView" : 15,
            "componentType" : 5126,
            "count" : 1792,
            "type" : "VEC3"
        },
        {
            "bufferView" : 16,
            "componentType" : 5126,
            "count" : 1792,
            "type" : "VEC2"
        },
        {
            "bufferView" : 17,
            "componentType" : 5123,
            "count" : 2496,
            "type" : "SCALAR"
        }
    ],
    "bufferViews" : [
        {
            "buffer" : 0,
            "byteLength" : 12384,
            "byteOffset" : 0
        },
        {
            "buffer" : 0,
            "byteLength" : 12384,
            "byteOffset" : 12384
        },
        {
            "buffer" : 0,
            "byteLength" : 8256,
            "byteOffset" : 24768
        },
        {
            "buffer" : 0,
            "byteLength" : 2520,
            "byteOffset" : 33024
        },
        {
            "buffer" : 0,
            "byteLength" : 110589,
            "byteOffset" : 35544
        },
        {
            "buffer" : 0,
            "byteLength" : 7584,
            "byteOffset" : 146136
        },
        {
            "buffer" : 0,
            "byteLength" : 7584,
            "byteOffset" : 153720
        },
        {
            "buffer" : 0,
            "byteLength" : 5056,
            "byteOffset" : 161304
        },
        {
            "buffer" : 0,
            "byteLength" : 1872,
            "byteOffset" : 166360
        },
        {
            "buffer" : 0,
            "byteLength" : 166908,
            "byteOffset" : 168232
        },
        {
            "buffer" : 0,
            "byteLength" : 258348,
            "byteOffset" : 335140
        },
        {
            "buffer" : 0,
            "byteLength" : 258348,
            "byteOffset" : 593488
        },
        {
            "buffer" : 0,
            "byteLength" : 172232,
            "byteOffset" : 851836
        },
        {
            "buffer" : 0,
            "byteLength" : 99648,
            "byteOffset" : 1024068
        },
        {
            "buffer" : 0,
            "byteLength" : 21504,
            "byteOffset" : 1123716
        },
        {
            "buffer" : 0,
            "byteLength" : 21504,
            "byteOffset" : 1145220
        },
        {
            "buffer" : 0,
            "byteLength" : 14336,
            "byteOffset" : 1166724
        },
        {
            "buffer" : 0,
            "byteLength" : 4992,
            "byteOffset" : 1181060
        }
    ],
    "samplers" : [
        {
            "magFilter" : 9729,
            "minFilter" : 9987
        }
    ],
    "buffers" : [
        {
            "byteLength" : 1186052,
            "uri" : "data:application/octet-stream;base64,"
        }
    ]
}
