{
    "asset" : {
        "generator" : "Khronos glTF Blender I/O v1.8.19",
        "version" : "2.0"
    },
    "scene" : 0,
    "scenes" : [
        {
            "name" : "Scene",
            "nodes" : [
                0
            ]
        }
    ],
    "nodes" : [
        {
            "mesh" : 0,
            "name" : "\u4e2d\u5f0f\u8def\u706f07"
        }
    ],
    "materials" : [
        {
            "doubleSided" : true,
            "name" : "Mat3d66-800853-19-2572",
            "pbrMetallicRoughness" : {
                "metallicFactor" : 0,
                "roughnessFactor" : 0.8070866465568542
            }
        },
        {
            "doubleSided" : true,
            "name" : "Mat3d66-800853-5-766",
            "pbrMetallicRoughness" : {
                "baseColorFactor" : [
                    0.17254899442195892,
                    0.17254899442195892,
                    0.17254899442195892,
                    1
                ],
                "metallicFactor" : 0,
                "roughnessFactor" : 0.6417319774627686
            }
        },
        {
            "doubleSided" : true,
            "name" : "Mat3d66-800853-4-236",
            "pbrMetallicRoughness" : {
                "baseColorFactor" : [
                    0.06274499744176865,
                    0.06274499744176865,
                    0.06274499744176865,
                    1
                ],
                "metallicFactor" : 0,
                "roughnessFactor" : 0.6102362275123596
            }
        }
    ],
    "meshes" : [
        {
            "name" : "Obj3d66-800853-21-289",
            "primitives" : [
                {
                    "attributes" : {
                        "POSITION" : 0,
                        "NORMAL" : 1,
                        "TEXCOORD_0" : 2
                    },
                    "indices" : 3,
                    "material" : 0
                },
                {
                    "attributes" : {
                        "POSITION" : 4,
                        "NORMAL" : 5,
                        "TEXCOORD_0" : 6
                    },
                    "indices" : 7,
                    "material" : 1
                },
                {
                    "attributes" : {
                        "POSITION" : 8,
                        "NORMAL" : 9,
                        "TEXCOORD_0" : 10
                    },
                    "indices" : 11,
                    "material" : 2
                }
            ]
        }
    ],
    "accessors" : [
        {
            "bufferView" : 0,
            "componentType" : 5126,
            "count" : 156,
            "max" : [
                0.1479172706604004,
                2.985774278640747,
                0.1479172259569168
            ],
            "min" : [
                -0.1479172706604004,
                1.9691503047943115,
                -0.14791721105575562
            ],
            "type" : "VEC3"
        },
        {
            "bufferView" : 1,
            "componentType" : 5126,
            "count" : 156,
            "type" : "VEC3"
        },
        {
            "bufferView" : 2,
            "componentType" : 5126,
            "count" : 156,
            "type" : "VEC2"
        },
        {
            "bufferView" : 3,
            "componentType" : 5123,
            "count" : 294,
            "type" : "SCALAR"
        },
        {
            "bufferView" : 4,
            "componentType" : 5126,
            "count" : 488,
            "max" : [
                0.18489646911621094,
                3.0092785358428955,
                0.18489651381969452
            ],
            "min" : [
                -0.18489646911621094,
                0,
                -0.18489649891853333
            ],
            "type" : "VEC3"
        },
        {
            "bufferView" : 5,
            "componentType" : 5126,
            "count" : 488,
            "type" : "VEC3"
        },
        {
            "bufferView" : 6,
            "componentType" : 5126,
            "count" : 488,
            "type" : "VEC2"
        },
        {
            "bufferView" : 7,
            "componentType" : 5123,
            "count" : 1026,
            "type" : "SCALAR"
        },
        {
            "bufferView" : 8,
            "componentType" : 5126,
            "count" : 1908,
            "max" : [
                0.18489646911621094,
                2.9897167682647705,
                0.18489651381969452
            ],
            "min" : [
                -0.18489646911621094,
                1.6583006381988525,
                -0.18489649891853333
            ],
            "type" : "VEC3"
        },
        {
            "bufferView" : 9,
            "componentType" : 5126,
            "count" : 1908,
            "type" : "VEC3"
        },
        {
            "bufferView" : 10,
            "componentType" : 5126,
            "count" : 1908,
            "type" : "VEC2"
        },
        {
            "bufferView" : 11,
            "componentType" : 5123,
            "count" : 4158,
            "type" : "SCALAR"
        }
    ],
    "bufferViews" : [
        {
            "buffer" : 0,
            "byteLength" : 1872,
            "byteOffset" : 0
        },
        {
            "buffer" : 0,
            "byteLength" : 1872,
            "byteOffset" : 1872
        },
        {
            "buffer" : 0,
            "byteLength" : 1248,
            "byteOffset" : 3744
        },
        {
            "buffer" : 0,
            "byteLength" : 588,
            "byteOffset" : 4992
        },
        {
            "buffer" : 0,
            "byteLength" : 5856,
            "byteOffset" : 5580
        },
        {
            "buffer" : 0,
            "byteLength" : 5856,
            "byteOffset" : 11436
        },
        {
            "buffer" : 0,
            "byteLength" : 3904,
            "byteOffset" : 17292
        },
        {
            "buffer" : 0,
            "byteLength" : 2052,
            "byteOffset" : 21196
        },
        {
            "buffer" : 0,
            "byteLength" : 22896,
            "byteOffset" : 23248
        },
        {
            "buffer" : 0,
            "byteLength" : 22896,
            "byteOffset" : 46144
        },
        {
            "buffer" : 0,
            "byteLength" : 15264,
            "byteOffset" : 69040
        },
        {
            "buffer" : 0,
            "byteLength" : 8316,
            "byteOffset" : 84304
        }
    ],
    "buffers" : [
        {
            "byteLength" : 92620,
            "uri" : "data:application/octet-stream;base64,"
        }
    ]
}
