{
    "asset" : {
        "generator" : "Khronos glTF Blender I/O v1.8.19",
        "version" : "2.0"
    },
    "scene" : 0,
    "scenes" : [
        {
            "name" : "Scene",
            "nodes" : [
                0
            ]
        }
    ],
    "nodes" : [
        {
            "mesh" : 0,
            "name" : "\u9053\u8def04"
        }
    ],
    "materials" : [
        {
            "doubleSided" : true,
            "name" : "Mat3d66-1664118-7-4551.003",
            "pbrMetallicRoughness" : {
                "baseColorFactor" : [
                    0.5,
                    0.5,
                    0.5,
                    1
                ],
                "metallicFactor" : 0.21259842813014984,
                "roughnessFactor" : 0.7283464670181274
            }
        },
        {
            "doubleSided" : true,
            "name" : "Mat3d66-1664118-3-1555.003",
            "pbrMetallicRoughness" : {
                "baseColorTexture" : {
                    "index" : 0
                },
                "metallicFactor" : 0
            }
        },
        {
            "doubleSided" : true,
            "name" : "Mat3d66-1664118-4-3660.003",
            "pbrMetallicRoughness" : {
                "baseColorTexture" : {
                    "index" : 1
                },
                "metallicFactor" : 0
            }
        },
        {
            "doubleSided" : true,
            "name" : "Mat3d66-1664118-2-1056.003",
            "pbrMetallicRoughness" : {
                "baseColorFactor" : [
                    0.800000011920929,
                    0.800000011920929,
                    0.800000011920929,
                    1
                ],
                "metallicFactor" : 0
            }
        },
        {
            "doubleSided" : true,
            "name" : "Mat3d66-1664118-5-9553.003",
            "pbrMetallicRoughness" : {
                "baseColorTexture" : {
                    "index" : 2
                },
                "metallicFactor" : 0
            }
        },
        {
            "doubleSided" : true,
            "name" : "Mat3d66-1664118-13-5687",
            "pbrMetallicRoughness" : {
                "baseColorFactor" : [
                    0.5,
                    0.5,
                    0.5,
                    1
                ],
                "metallicFactor" : 0
            }
        }
    ],
    "meshes" : [
        {
            "name" : "Obj3d66-1664118-29-836.012",
            "primitives" : [
                {
                    "attributes" : {
                        "POSITION" : 0,
                        "NORMAL" : 1,
                        "TEXCOORD_0" : 2,
                        "TEXCOORD_1" : 3
                    },
                    "indices" : 4,
                    "material" : 0
                },
                {
                    "attributes" : {
                        "POSITION" : 5,
                        "NORMAL" : 6,
                        "TEXCOORD_0" : 7,
                        "TEXCOORD_1" : 8
                    },
                    "indices" : 9,
                    "material" : 1
                },
                {
                    "attributes" : {
                        "POSITION" : 10,
                        "NORMAL" : 11,
                        "TEXCOORD_0" : 12,
                        "TEXCOORD_1" : 13
                    },
                    "indices" : 14,
                    "material" : 2
                },
                {
                    "attributes" : {
                        "POSITION" : 15,
                        "NORMAL" : 16,
                        "TEXCOORD_0" : 17,
                        "TEXCOORD_1" : 18
                    },
                    "indices" : 19,
                    "material" : 3
                },
                {
                    "attributes" : {
                        "POSITION" : 20,
                        "NORMAL" : 21,
                        "TEXCOORD_0" : 22,
                        "TEXCOORD_1" : 23
                    },
                    "indices" : 24,
                    "material" : 4
                },
                {
                    "attributes" : {
                        "POSITION" : 25,
                        "NORMAL" : 26,
                        "TEXCOORD_0" : 27,
                        "TEXCOORD_1" : 28
                    },
                    "indices" : 29,
                    "material" : 5
                }
            ]
        }
    ],
    "textures" : [
        {
            "sampler" : 0,
            "source" : 0
        },
        {
            "sampler" : 0,
            "source" : 1
        },
        {
            "sampler" : 0,
            "source" : 2
        }
    ],
    "images" : [
        {
            "bufferView" : 10,
            "mimeType" : "image/jpeg",
            "name" : "Image_0"
        },
        {
            "bufferView" : 16,
            "mimeType" : "image/jpeg",
            "name" : "Image_1"
        },
        {
            "bufferView" : 27,
            "mimeType" : "image/jpeg",
            "name" : "Image_3"
        }
    ],
    "accessors" : [
        {
            "bufferView" : 0,
            "componentType" : 5126,
            "count" : 26564,
            "max" : [
                6.340087890625,
                1.4307997226715088,
                9.345991134643555
            ],
            "min" : [
                -9.346027374267578,
                0.1593809276819229,
                -6.3401899337768555
            ],
            "type" : "VEC3"
        },
        {
            "bufferView" : 1,
            "componentType" : 5126,
            "count" : 26564,
            "type" : "VEC3"
        },
        {
            "bufferView" : 2,
            "componentType" : 5126,
            "count" : 26564,
            "type" : "VEC2"
        },
        {
            "bufferView" : 3,
            "componentType" : 5126,
            "count" : 26564,
            "type" : "VEC2"
        },
        {
            "bufferView" : 4,
            "componentType" : 5123,
            "count" : 42852,
            "type" : "SCALAR"
        },
        {
            "bufferView" : 5,
            "componentType" : 5126,
            "count" : 203,
            "max" : [
                9.266414642333984,
                0.29593390226364136,
                9.346183776855469
            ],
            "min" : [
                -9.346210479736328,
                0.13870681822299957,
                -9.266225814819336
            ],
            "type" : "VEC3"
        },
        {
            "bufferView" : 6,
            "componentType" : 5126,
            "count" : 203,
            "type" : "VEC3"
        },
        {
            "bufferView" : 7,
            "componentType" : 5126,
            "count" : 203,
            "type" : "VEC2"
        },
        {
            "bufferView" : 8,
            "componentType" : 5126,
            "count" : 203,
            "type" : "VEC2"
        },
        {
            "bufferView" : 9,
            "componentType" : 5123,
            "count" : 360,
            "type" : "SCALAR"
        },
        {
            "bufferView" : 11,
            "componentType" : 5126,
            "count" : 36871,
            "max" : [
                9.34621810913086,
                0.30204713344573975,
                9.345321655273438
            ],
            "min" : [
                -9.345348358154297,
                -7.450580596923828e-09,
                -9.346196174621582
            ],
            "type" : "VEC3"
        },
        {
            "bufferView" : 12,
            "componentType" : 5126,
            "count" : 36871,
            "type" : "VEC3"
        },
        {
            "bufferView" : 13,
            "componentType" : 5126,
            "count" : 36871,
            "type" : "VEC2"
        },
        {
            "bufferView" : 14,
            "componentType" : 5126,
            "count" : 36871,
            "type" : "VEC2"
        },
        {
            "bufferView" : 15,
            "componentType" : 5123,
            "count" : 107712,
            "type" : "SCALAR"
        },
        {
            "bufferView" : 17,
            "componentType" : 5126,
            "count" : 480,
            "max" : [
                6.017139434814453,
                0.09760609269142151,
                9.346196174621582
            ],
            "min" : [
                -9.34621810913086,
                0.09759052842855453,
                -6.016785621643066
            ],
            "type" : "VEC3"
        },
        {
            "bufferView" : 18,
            "componentType" : 5126,
            "count" : 480,
            "type" : "VEC3"
        },
        {
            "bufferView" : 19,
            "componentType" : 5126,
            "count" : 480,
            "type" : "VEC2"
        },
        {
            "bufferView" : 20,
            "componentType" : 5126,
            "count" : 480,
            "type" : "VEC2"
        },
        {
            "bufferView" : 21,
            "componentType" : 5123,
            "count" : 528,
            "type" : "SCALAR"
        },
        {
            "bufferView" : 22,
            "componentType" : 5126,
            "count" : 1053,
            "max" : [
                7.686191558837891,
                0.2768806219100952,
                9.346034049987793
            ],
            "min" : [
                -9.346115112304688,
                0.21032902598381042,
                -7.685823440551758
            ],
            "type" : "VEC3"
        },
        {
            "bufferView" : 23,
            "componentType" : 5126,
            "count" : 1053,
            "type" : "VEC3"
        },
        {
            "bufferView" : 24,
            "componentType" : 5126,
            "count" : 1053,
            "type" : "VEC2"
        },
        {
            "bufferView" : 25,
            "componentType" : 5126,
            "count" : 1053,
            "type" : "VEC2"
        },
        {
            "bufferView" : 26,
            "componentType" : 5123,
            "count" : 5376,
            "type" : "SCALAR"
        },
        {
            "bufferView" : 28,
            "componentType" : 5126,
            "count" : 134,
            "max" : [
                6.114749908447266,
                0.09659804403781891,
                9.34605884552002
            ],
            "min" : [
                -9.346084594726562,
                0.09659804403781891,
                -6.114449501037598
            ],
            "type" : "VEC3"
        },
        {
            "bufferView" : 29,
            "componentType" : 5126,
            "count" : 134,
            "type" : "VEC3"
        },
        {
            "bufferView" : 30,
            "componentType" : 5126,
            "count" : 134,
            "type" : "VEC2"
        },
        {
            "bufferView" : 31,
            "componentType" : 5126,
            "count" : 134,
            "type" : "VEC2"
        },
        {
            "bufferView" : 32,
            "componentType" : 5123,
            "count" : 156,
            "type" : "SCALAR"
        }
    ],
    "bufferViews" : [
        {
            "buffer" : 0,
            "byteLength" : 318768,
            "byteOffset" : 0
        },
        {
            "buffer" : 0,
            "byteLength" : 318768,
            "byteOffset" : 318768
        },
        {
            "buffer" : 0,
            "byteLength" : 212512,
            "byteOffset" : 637536
        },
        {
            "buffer" : 0,
            "byteLength" : 212512,
            "byteOffset" : 850048
        },
        {
            "buffer" : 0,
            "byteLength" : 85704,
            "byteOffset" : 1062560
        },
        {
            "buffer" : 0,
            "byteLength" : 2436,
            "byteOffset" : 1148264
        },
        {
            "buffer" : 0,
            "byteLength" : 2436,
            "byteOffset" : 1150700
        },
        {
            "buffer" : 0,
            "byteLength" : 1624,
            "byteOffset" : 1153136
        },
        {
            "buffer" : 0,
            "byteLength" : 1624,
            "byteOffset" : 1154760
        },
        {
            "buffer" : 0,
            "byteLength" : 720,
            "byteOffset" : 1156384
        },
        {
            "buffer" : 0,
            "byteLength" : 32242,
            "byteOffset" : 1157104
        },
        {
            "buffer" : 0,
            "byteLength" : 442452,
            "byteOffset" : 1189348
        },
        {
            "buffer" : 0,
            "byteLength" : 442452,
            "byteOffset" : 1631800
        },
        {
            "buffer" : 0,
            "byteLength" : 294968,
            "byteOffset" : 2074252
        },
        {
            "buffer" : 0,
            "byteLength" : 294968,
            "byteOffset" : 2369220
        },
        {
            "buffer" : 0,
            "byteLength" : 215424,
            "byteOffset" : 2664188
        },
        {
            "buffer" : 0,
            "byteLength" : 19105,
            "byteOffset" : 2879612
        },
        {
            "buffer" : 0,
            "byteLength" : 5760,
            "byteOffset" : 2898720
        },
        {
            "buffer" : 0,
            "byteLength" : 5760,
            "byteOffset" : 2904480
        },
        {
            "buffer" : 0,
            "byteLength" : 3840,
            "byteOffset" : 2910240
        },
        {
            "buffer" : 0,
            "byteLength" : 3840,
            "byteOffset" : 2914080
        },
        {
            "buffer" : 0,
            "byteLength" : 1056,
            "byteOffset" : 2917920
        },
        {
            "buffer" : 0,
            "byteLength" : 12636,
            "byteOffset" : 2918976
        },
        {
            "buffer" : 0,
            "byteLength" : 12636,
            "byteOffset" : 2931612
        },
        {
            "buffer" : 0,
            "byteLength" : 8424,
            "byteOffset" : 2944248
        },
        {
            "buffer" : 0,
            "byteLength" : 8424,
            "byteOffset" : 2952672
        },
        {
            "buffer" : 0,
            "byteLength" : 10752,
            "byteOffset" : 2961096
        },
        {
            "buffer" : 0,
            "byteLength" : 59674,
            "byteOffset" : 2971848
        },
        {
            "buffer" : 0,
            "byteLength" : 1608,
            "byteOffset" : 3031524
        },
        {
            "buffer" : 0,
            "byteLength" : 1608,
            "byteOffset" : 3033132
        },
        {
            "buffer" : 0,
            "byteLength" : 1072,
            "byteOffset" : 3034740
        },
        {
            "buffer" : 0,
            "byteLength" : 1072,
            "byteOffset" : 3035812
        },
        {
            "buffer" : 0,
            "byteLength" : 312,
            "byteOffset" : 3036884
        }
    ],
    "samplers" : [
        {
            "magFilter" : 9729,
            "minFilter" : 9987
        }
    ],
    "buffers" : [
        {
            "byteLength" : 3037196,
            "uri" : "data:application/octet-stream;base64,"
        }
    ]
}
